<?xml version="1.0" standalone="no"?>
<!DOCTYPE svg PUBLIC "-//W3C//DTD SVG 20010904//EN"
 "http://www.w3.org/TR/2001/REC-SVG-20010904/DTD/svg10.dtd">
<svg version="1.0" xmlns="http://www.w3.org/2000/svg"
 width="60.000000pt" height="60.000000pt" viewBox="0 0 60.000000 60.000000"
 preserveAspectRatio="xMidYMid meet">

<g transform="translate(0.000000,60.000000) scale(0.100000,-0.100000)"
fill="#000000" stroke="none">
<path d="M150 296 l0 -216 35 0 35 0 0 79 0 78 80 6 c95 8 132 24 154 71 20
42 20 76 2 121 -24 56 -52 67 -186 73 l-120 5 0 -217z m220 124 c11 -11 20
-31 20 -45 0 -45 -32 -65 -105 -65 l-65 0 0 65 0 65 65 0 c52 0 69 -4 85 -20z"/>
</g>
</svg>
